<?xml version="1.0" encoding="iso-8859-1"?>
<!-- Generator: Adobe Illustrator 17.1.0, SVG Export Plug-In . SVG Version: 6.00 Build 0)  -->
<!DOCTYPE svg PUBLIC "-//W3C//DTD SVG 1.1//EN" "http://www.w3.org/Graphics/SVG/1.1/DTD/svg11.dtd">
<svg version="1.1" id="Capa_1" xmlns="http://www.w3.org/2000/svg" xmlns:xlink="http://www.w3.org/1999/xlink" x="0px" y="0px"
	 viewBox="0 0 214.838 214.838" style="enable-background:new 0 0 214.838 214.838;" xml:space="preserve">
<path d="M210.838,160.421c-2.209,0-4-1.791-4-4v-18.879H8v18.879c0,2.209-1.791,4-4,4s-4-1.791-4-4V77.949c0-2.209,1.791-4,4-4
	s4,1.791,4,4v13.967h128.838c2.209,0,4,1.791,4,4v7.356h20.314c1.846-14.869,14.561-26.416,29.922-26.416h15.764V58.417
	c0-2.209,1.791-4,4-4s4,1.791,4,4v98.004C214.838,158.63,213.047,160.421,210.838,160.421z M140.838,129.542h66v-18.27h-66V129.542z
	 M8,129.542h124.838V99.916H8V129.542z M169.236,103.272h37.602V84.856h-15.764C180.132,84.856,171.018,92.831,169.236,103.272z"/>
<g>
</g>
<g>
</g>
<g>
</g>
<g>
</g>
<g>
</g>
<g>
</g>
<g>
</g>
<g>
</g>
<g>
</g>
<g>
</g>
<g>
</g>
<g>
</g>
<g>
</g>
<g>
</g>
<g>
</g>
</svg>
